<?xml version="1.0" encoding="UTF-8"?>
<svg xmlns="http://www.w3.org/2000/svg" xmlns:xlink="http://www.w3.org/1999/xlink" width="24px" height="24px" viewBox="0 0 24 24" version="1.1">
<g id="surface1">
<path style=" stroke:none;fill-rule:evenodd;fill:rgb(61.176473%,63.529414%,65.490198%);fill-opacity:1;" d="M 12 6.855469 C 14.839844 6.855469 17.144531 9.160156 17.144531 12 C 17.144531 14.839844 14.839844 17.144531 12 17.144531 C 9.160156 17.144531 6.855469 14.839844 6.855469 12 C 6.855469 9.160156 9.160156 6.855469 12 6.855469 Z M 12 8.570312 C 10.109375 8.570312 8.570312 10.109375 8.570312 12 C 8.570312 13.890625 10.109375 15.429688 12 15.429688 C 13.890625 15.429688 15.429688 13.890625 15.429688 12 C 15.429688 10.109375 13.890625 8.570312 12 8.570312 Z M 11.144531 0.855469 C 11.144531 0.382812 11.527344 0 12 0 C 12.472656 0 12.855469 0.382812 12.855469 0.855469 L 12.855469 4.285156 C 12.855469 4.757812 12.472656 5.144531 12 5.144531 C 11.527344 5.144531 11.144531 4.757812 11.144531 4.285156 Z M 19.273438 3.515625 C 19.609375 3.179688 20.152344 3.179688 20.484375 3.515625 C 20.820312 3.851562 20.820312 4.390625 20.484375 4.726562 L 18.0625 7.152344 C 17.726562 7.484375 17.183594 7.484375 16.847656 7.152344 C 16.515625 6.816406 16.515625 6.273438 16.847656 5.9375 Z M 23.144531 11.144531 C 23.617188 11.144531 24 11.527344 24 12 C 24 12.472656 23.617188 12.855469 23.144531 12.855469 L 19.714844 12.855469 C 19.242188 12.855469 18.855469 12.472656 18.855469 12 C 18.855469 11.527344 19.242188 11.144531 19.714844 11.144531 Z M 20.484375 19.273438 C 20.820312 19.609375 20.820312 20.152344 20.484375 20.484375 C 20.152344 20.820312 19.609375 20.820312 19.273438 20.484375 L 16.847656 18.0625 C 16.515625 17.726562 16.515625 17.183594 16.847656 16.847656 C 17.183594 16.515625 17.726562 16.515625 18.0625 16.847656 Z M 11.144531 19.714844 C 11.144531 19.242188 11.527344 18.855469 12 18.855469 C 12.472656 18.855469 12.855469 19.242188 12.855469 19.714844 L 12.855469 23.144531 C 12.855469 23.617188 12.472656 24 12 24 C 11.527344 24 11.144531 23.617188 11.144531 23.144531 Z M 5.9375 16.847656 C 6.273438 16.515625 6.816406 16.515625 7.152344 16.847656 C 7.484375 17.183594 7.484375 17.726562 7.152344 18.0625 L 4.726562 20.484375 C 4.390625 20.820312 3.851562 20.820312 3.515625 20.484375 C 3.179688 20.152344 3.179688 19.609375 3.515625 19.273438 Z M 4.285156 11.144531 C 4.757812 11.144531 5.144531 11.527344 5.144531 12 C 5.144531 12.472656 4.757812 12.855469 4.285156 12.855469 L 0.855469 12.855469 C 0.382812 12.855469 0 12.472656 0 12 C 0 11.527344 0.382812 11.144531 0.855469 11.144531 Z M 7.152344 5.9375 C 7.484375 6.273438 7.484375 6.816406 7.152344 7.152344 C 6.816406 7.484375 6.273438 7.484375 5.9375 7.152344 L 3.515625 4.726562 C 3.179688 4.390625 3.179688 3.851562 3.515625 3.515625 C 3.847656 3.179688 4.390625 3.179688 4.726562 3.515625 Z M 7.152344 5.9375 "/>
</g>
</svg>
